<mxfile host="app.diagrams.net" modified="2021-05-09T18:44:46.233Z" agent="5.0 (Macintosh; Intel Mac OS X 10_15_6) AppleWebKit/537.36 (KHTML, like Gecko) Chrome/90.0.4430.93 Safari/537.36" etag="MPWHmhJeY9dA1bVFY63c" version="14.6.11" type="github">
  <diagram id="mOUmUlxvAqM6CeThcMWZ" name="第 1 页">
    <mxGraphModel dx="786" dy="489" grid="1" gridSize="10" guides="1" tooltips="1" connect="1" arrows="1" fold="1" page="1" pageScale="1" pageWidth="827" pageHeight="1169" math="0" shadow="0">
      <root>
        <mxCell id="0" />
        <mxCell id="1" parent="0" />
        <mxCell id="wIn1vtrKWPu5YII-fjSw-11" value="菜单表" style="whiteSpace=wrap;html=1;align=center;strokeWidth=2;fontSize=15;" vertex="1" parent="1">
          <mxGeometry x="250" y="230" width="100" height="40" as="geometry" />
        </mxCell>
        <mxCell id="wIn1vtrKWPu5YII-fjSw-12" value="菜单url" style="ellipse;whiteSpace=wrap;html=1;align=center;strokeWidth=2;fontSize=15;" vertex="1" parent="1">
          <mxGeometry x="350" y="120" width="100" height="40" as="geometry" />
        </mxCell>
        <mxCell id="wIn1vtrKWPu5YII-fjSw-13" value="父id" style="ellipse;whiteSpace=wrap;html=1;align=center;strokeWidth=2;fontSize=15;" vertex="1" parent="1">
          <mxGeometry x="110" y="190" width="100" height="40" as="geometry" />
        </mxCell>
        <mxCell id="wIn1vtrKWPu5YII-fjSw-14" value="图标" style="ellipse;whiteSpace=wrap;html=1;align=center;strokeWidth=2;fontSize=15;" vertex="1" parent="1">
          <mxGeometry x="260" y="370" width="100" height="40" as="geometry" />
        </mxCell>
        <mxCell id="wIn1vtrKWPu5YII-fjSw-15" value="菜单名" style="ellipse;whiteSpace=wrap;html=1;align=center;strokeWidth=2;fontSize=15;" vertex="1" parent="1">
          <mxGeometry x="360" y="330" width="100" height="40" as="geometry" />
        </mxCell>
        <mxCell id="wIn1vtrKWPu5YII-fjSw-16" value="组件名" style="ellipse;whiteSpace=wrap;html=1;align=center;strokeWidth=2;fontSize=15;" vertex="1" parent="1">
          <mxGeometry x="380" y="270" width="100" height="40" as="geometry" />
        </mxCell>
        <mxCell id="wIn1vtrKWPu5YII-fjSw-17" value="是否启用" style="ellipse;whiteSpace=wrap;html=1;align=center;strokeWidth=2;fontSize=15;" vertex="1" parent="1">
          <mxGeometry x="140" y="120" width="100" height="40" as="geometry" />
        </mxCell>
        <mxCell id="wIn1vtrKWPu5YII-fjSw-18" value="是否有权限" style="ellipse;whiteSpace=wrap;html=1;align=center;strokeWidth=2;fontSize=15;" vertex="1" parent="1">
          <mxGeometry x="110" y="270" width="100" height="40" as="geometry" />
        </mxCell>
        <mxCell id="wIn1vtrKWPu5YII-fjSw-19" value="是否激活" style="ellipse;whiteSpace=wrap;html=1;align=center;strokeWidth=2;fontSize=15;" vertex="1" parent="1">
          <mxGeometry x="150" y="350" width="100" height="40" as="geometry" />
        </mxCell>
        <mxCell id="wIn1vtrKWPu5YII-fjSw-20" value="菜单id" style="ellipse;whiteSpace=wrap;html=1;align=center;strokeWidth=2;fontSize=15;" vertex="1" parent="1">
          <mxGeometry x="240" y="90" width="100" height="40" as="geometry" />
        </mxCell>
        <mxCell id="wIn1vtrKWPu5YII-fjSw-21" value="菜单path" style="ellipse;whiteSpace=wrap;html=1;align=center;strokeWidth=2;fontSize=15;" vertex="1" parent="1">
          <mxGeometry x="400" y="190" width="100" height="40" as="geometry" />
        </mxCell>
        <mxCell id="wIn1vtrKWPu5YII-fjSw-22" value="" style="endArrow=none;html=1;rounded=0;fontSize=15;strokeWidth=2;entryX=0.5;entryY=0;entryDx=0;entryDy=0;" edge="1" parent="1" source="wIn1vtrKWPu5YII-fjSw-20" target="wIn1vtrKWPu5YII-fjSw-11">
          <mxGeometry relative="1" as="geometry">
            <mxPoint x="110" y="60" as="sourcePoint" />
            <mxPoint x="270" y="60" as="targetPoint" />
          </mxGeometry>
        </mxCell>
        <mxCell id="wIn1vtrKWPu5YII-fjSw-23" value="" style="endArrow=none;html=1;rounded=0;fontSize=15;strokeWidth=2;entryX=0.82;entryY=-0.075;entryDx=0;entryDy=0;exitX=0;exitY=1;exitDx=0;exitDy=0;entryPerimeter=0;" edge="1" parent="1" source="wIn1vtrKWPu5YII-fjSw-12" target="wIn1vtrKWPu5YII-fjSw-11">
          <mxGeometry relative="1" as="geometry">
            <mxPoint x="301.66574151163195" y="139.9888981395834" as="sourcePoint" />
            <mxPoint x="310" y="240" as="targetPoint" />
          </mxGeometry>
        </mxCell>
        <mxCell id="wIn1vtrKWPu5YII-fjSw-24" value="" style="endArrow=none;html=1;rounded=0;fontSize=15;strokeWidth=2;entryX=0;entryY=0.5;entryDx=0;entryDy=0;exitX=1;exitY=0.25;exitDx=0;exitDy=0;" edge="1" parent="1" source="wIn1vtrKWPu5YII-fjSw-11" target="wIn1vtrKWPu5YII-fjSw-21">
          <mxGeometry relative="1" as="geometry">
            <mxPoint x="311.66574151163195" y="149.9888981395834" as="sourcePoint" />
            <mxPoint x="320" y="250" as="targetPoint" />
          </mxGeometry>
        </mxCell>
        <mxCell id="wIn1vtrKWPu5YII-fjSw-25" value="" style="endArrow=none;html=1;rounded=0;fontSize=15;strokeWidth=2;entryX=0;entryY=0;entryDx=0;entryDy=0;exitX=1;exitY=0.75;exitDx=0;exitDy=0;" edge="1" parent="1" source="wIn1vtrKWPu5YII-fjSw-11" target="wIn1vtrKWPu5YII-fjSw-16">
          <mxGeometry relative="1" as="geometry">
            <mxPoint x="321.66574151163195" y="159.9888981395834" as="sourcePoint" />
            <mxPoint x="330" y="260" as="targetPoint" />
          </mxGeometry>
        </mxCell>
        <mxCell id="wIn1vtrKWPu5YII-fjSw-26" value="" style="endArrow=none;html=1;rounded=0;fontSize=15;strokeWidth=2;entryX=0;entryY=0;entryDx=0;entryDy=0;exitX=0.75;exitY=1;exitDx=0;exitDy=0;" edge="1" parent="1" source="wIn1vtrKWPu5YII-fjSw-11" target="wIn1vtrKWPu5YII-fjSw-15">
          <mxGeometry relative="1" as="geometry">
            <mxPoint x="331.66574151163195" y="169.9888981395834" as="sourcePoint" />
            <mxPoint x="340" y="270" as="targetPoint" />
          </mxGeometry>
        </mxCell>
        <mxCell id="wIn1vtrKWPu5YII-fjSw-27" value="" style="endArrow=none;html=1;rounded=0;fontSize=15;strokeWidth=2;entryX=0.5;entryY=0;entryDx=0;entryDy=0;exitX=0.5;exitY=1;exitDx=0;exitDy=0;" edge="1" parent="1" source="wIn1vtrKWPu5YII-fjSw-11" target="wIn1vtrKWPu5YII-fjSw-14">
          <mxGeometry relative="1" as="geometry">
            <mxPoint x="341.66574151163195" y="179.9888981395834" as="sourcePoint" />
            <mxPoint x="350" y="280" as="targetPoint" />
          </mxGeometry>
        </mxCell>
        <mxCell id="wIn1vtrKWPu5YII-fjSw-28" value="" style="endArrow=none;html=1;rounded=0;fontSize=15;strokeWidth=2;entryX=0;entryY=0.25;entryDx=0;entryDy=0;exitX=1;exitY=0.5;exitDx=0;exitDy=0;" edge="1" parent="1" source="wIn1vtrKWPu5YII-fjSw-13" target="wIn1vtrKWPu5YII-fjSw-11">
          <mxGeometry relative="1" as="geometry">
            <mxPoint x="301.66574151163195" y="139.9888981395834" as="sourcePoint" />
            <mxPoint x="310" y="240" as="targetPoint" />
          </mxGeometry>
        </mxCell>
        <mxCell id="wIn1vtrKWPu5YII-fjSw-29" value="" style="endArrow=none;html=1;rounded=0;fontSize=15;strokeWidth=2;entryX=0.25;entryY=0;entryDx=0;entryDy=0;exitX=1;exitY=1;exitDx=0;exitDy=0;" edge="1" parent="1" source="wIn1vtrKWPu5YII-fjSw-17" target="wIn1vtrKWPu5YII-fjSw-11">
          <mxGeometry relative="1" as="geometry">
            <mxPoint x="311.66574151163195" y="149.9888981395834" as="sourcePoint" />
            <mxPoint x="320" y="250" as="targetPoint" />
          </mxGeometry>
        </mxCell>
        <mxCell id="wIn1vtrKWPu5YII-fjSw-30" value="" style="endArrow=none;html=1;rounded=0;fontSize=15;strokeWidth=2;entryX=0;entryY=0.75;entryDx=0;entryDy=0;exitX=1;exitY=0;exitDx=0;exitDy=0;" edge="1" parent="1" source="wIn1vtrKWPu5YII-fjSw-18" target="wIn1vtrKWPu5YII-fjSw-11">
          <mxGeometry relative="1" as="geometry">
            <mxPoint x="321.66574151163195" y="159.9888981395834" as="sourcePoint" />
            <mxPoint x="330" y="260" as="targetPoint" />
          </mxGeometry>
        </mxCell>
        <mxCell id="wIn1vtrKWPu5YII-fjSw-31" value="" style="endArrow=none;html=1;rounded=0;fontSize=15;strokeWidth=2;entryX=0.5;entryY=0;entryDx=0;entryDy=0;exitX=0.25;exitY=1;exitDx=0;exitDy=0;" edge="1" parent="1" source="wIn1vtrKWPu5YII-fjSw-11" target="wIn1vtrKWPu5YII-fjSw-19">
          <mxGeometry relative="1" as="geometry">
            <mxPoint x="331.66574151163195" y="169.9888981395834" as="sourcePoint" />
            <mxPoint x="340" y="270" as="targetPoint" />
          </mxGeometry>
        </mxCell>
      </root>
    </mxGraphModel>
  </diagram>
</mxfile>
